PathFileType	4	(X/Y/Z)	C:/Users/opensim2020/Desktop/walking_exp_matlab/subject02_walking15_straight_04.trc																																																																																																																												
DataRate	CameraRate	NumFrames	NumMarkers	Units	OrigDataRate	OrigDataStartFrame	OrigNumFrames																																																																																																																								
100	100	9	42	mm	100	1774	152																																																																																																																								
Frame#	Time	LFHD			RFHD			LBHD			RBHD			C7			T10			CLAV			STRN			RBAK			LSHO			LUPA			LELB			LFRM			LWRA			LWRB			LFIN			RSHO			RUPA			RELB			RFRM			RWRA			RWRB			RFIN			LASI			RASI			LPSI			RPSI			LTHI			LKNE			LTIB			LANK			LHEE			LTOE			RTHI			RKNE			RTIB			RANK			RHEE			RTOE			*39			*40			*41		
		X1	Y1	Z1	X2	Y2	Z2	X3	Y3	Z3	X4	Y4	Z4	X5	Y5	Z5	X6	Y6	Z6	X7	Y7	Z7	X8	Y8	Z8	X9	Y9	Z9	X10	Y10	Z10	X11	Y11	Z11	X12	Y12	Z12	X13	Y13	Z13	X14	Y14	Z14	X15	Y15	Z15	X16	Y16	Z16	X17	Y17	Z17	X18	Y18	Z18	X19	Y19	Z19	X20	Y20	Z20	X21	Y21	Z21	X22	Y22	Z22	X23	Y23	Z23	X24	Y24	Z24	X25	Y25	Z25	X26	Y26	Z26	X27	Y27	Z27	X28	Y28	Z28	X29	Y29	Z29	X30	Y30	Z30	X31	Y31	Z31	X32	Y32	Z32	X33	Y33	Z33	X34	Y34	Z34	X35	Y35	Z35	X36	Y36	Z36	X37	Y37	Z37	X38	Y38	Z38	X39	Y39	Z39	X40	Y40	Z40	X41	Y41	Z41	X42	Y42	Z42
																																																																																																																															
96	0.95	197.79813	1730.27661	1015.3382	203.1312	1720.05139	1158.6886	74.56355	1644.24133	1015.04303	67.59401	1631.10168	1158.4071	31.86824	1507.86597	1097.39941	-14.48421	1235.0885	1125.00012	172.80421	1442.05652	1078.11316	228.05386	1270.96448	1096.79126	-15.51231	1340.5719	1180.17554	86.3315	1472.06531	915.14691	28.43526	1281.15723	838.13715	-4.59331	1147.11145	820.08698	-25.62431	1017.47577	799.56653	4.90312	881.23602	815.43243	-43.24001	895.7796	790.33826	-38.21593	830.85425	778.81458	121.36258	1494.05432	1272.33521	141.02635	1323.50867	1387.95996	202.15321	1191.02979	1429.54578	295.78851	1111.85291	1440.83875	406.65561	1041.30493	1411.99109	376.54236	1010.10925	1448.17395	444.51913	988.03949	1447.37866	204.37651	967.80548	990.89026	205.73808	958.19519	1249.86414	-3.28864	1018.99036	1073.63733	-5.33556	1024.9043	1187.15344	213.13417	672.99561	922.62701	269.4155	484.84766	956.27246	272.03696	290.74054	965.31946	352.48807	79.4215	984.12164	340.40161	46.14764	1043.78687	500.10342	83.45015	939.50385	68.20477	666.41431	1316.05945	9.94675	461.14197	1280.45569	-69.96494	291.30991	1297.14636	-128.00977	103.44486	1267.79578	-175.76857	51.95915	1217.8009	18.26089	36.89411	1270.33203	92.40923	1791.25598	1104.75354	NaN	NaN	NaN	NaN	NaN	NaN
97	0.96	212.06252	1727.99207	1012.89313	217.53482	1717.3667	1156.38086	88.40063	1641.63123	1013.10254	81.75298	1628.69775	1156.35266	45.7533	1505.30139	1095.17139	-0.47116	1232.40234	1122.00769	186.8765	1439.27429	1076.08081	242.06107	1268.37683	1094.99487	-1.52693	1337.7821	1177.03894	100.50943	1469.36108	912.88336	41.29289	1278.79224	836.54584	6.20337	1145.57495	819.33807	-19.87867	1017.79797	797.37506	6.07138	879.9151	811.01019	-41.95354	896.8067	786.98291	-40.30005	832.12177	774.40332	135.22971	1491.33582	1270.11719	155.37813	1321.59937	1386.22266	218.45389	1190.32837	1429.0238	315.05829	1114.6239	1439.19055	428.47034	1049.01111	1409.06897	399.79779	1016.18567	1444.98889	468.5827	997.3056	1443.74536	220.1911	963.93616	987.85706	219.16708	955.63129	1248.46753	10.77379	1015.62653	1071.38867	8.16442	1021.55939	1184.22168	225.16934	668.48688	920.30652	285.44785	481.79953	953.57184	296.37061	288.40491	960.49469	384.65994	80.60444	977.08502	373.99585	46.1	1037.17932	532.27271	88.98309	931.88226	78.18282	665.25299	1314.85901	17.49448	460.7865	1279.30042	-65.61367	292.39435	1296.05872	-126.92782	105.38532	1267.24744	-175.17082	54.57943	1217.1239	18.47347	36.86905	1270.48438	106.95144	1788.46985	1102.97449	NaN	NaN	NaN	NaN	NaN	NaN
98	0.97	225.64574	1725.20398	1010.13202	231.78752	1714.87061	1153.88916	102.34239	1639.17566	1010.98907	95.91243	1626.41821	1154.15308	59.72292	1502.82324	1092.64856	13.63283	1229.76746	1118.87073	200.85255	1436.78967	1073.86377	256.31583	1266.00061	1092.98767	12.33815	1335.0603	1173.81433	114.68031	1466.82263	910.32269	54.40142	1276.38721	834.84357	17.667	1144.10327	818.16895	-13.39774	1018.05597	795.45203	7.4422	879.32288	806.70313	-40.03224	898.22058	783.67444	-41.35087	833.68872	770.32196	148.80701	1488.90051	1267.66956	169.29018	1319.64575	1384.34436	234.06241	1189.48474	1428.18677	333.4292	1117.26672	1437.2926	449.02341	1056.30408	1405.8833	421.87338	1022.12408	1441.62256	491.36136	1006.36121	1439.99243	235.11383	960.12659	985.64191	233.21651	953.43536	1246.59668	25.70746	1012.31744	1068.83472	21.87258	1018.45959	1181.27917	236.90642	664.38422	917.71893	301.93488	479.25363	950.44318	319.47455	286.79678	954.8855	413.59946	81.58931	970.66559	403.57074	46.81857	1029.93152	561.70667	93.49753	926.47296	88.70117	664.07782	1313.95789	25.97911	460.81812	1278.98853	-60.7503	293.74078	1295.19067	-125.33783	107.61471	1267.15417	-174.55367	57.88602	1216.84985	18.74392	36.8226	1270.66418	120.95113	1786.33887	1100.05225	NaN	NaN	NaN	NaN	NaN	NaN
99	0.98	239.68848	1722.78271	1007.69104	245.97557	1712.54675	1151.27979	116.56942	1636.73206	1008.63251	110.10432	1623.98108	1151.67798	73.63374	1500.43848	1089.89136	27.79162	1227.15088	1115.55652	214.86577	1434.47888	1071.32678	270.71622	1263.66431	1090.77417	26.04452	1332.53711	1170.94995	128.86919	1464.42407	907.6217	67.13052	1274.20447	832.69244	29.13785	1142.69519	817.25256	-5.52232	1018.54565	793.15979	9.55026	878.90289	802.65576	-37.77164	899.89716	780.56622	-41.74819	835.67792	766.40186	162.34543	1486.41992	1265.12695	182.70618	1317.58728	1382.15149	248.99994	1188.48267	1427.03967	350.88916	1119.63831	1435.09985	468.3873	1063.62585	1402.66235	442.7114	1027.8938	1438.27979	512.9502	1015.07477	1436.21472	250.8334	957.00702	983.2605	247.40939	951.6507	1244.69519	40.74492	1009.36127	1066.16858	35.95715	1015.76947	1178.19141	249.38234	661.14661	915.11011	319.03647	477.30511	947.07269	340.98444	285.5524	948.94061	439.54276	82.45006	964.22668	429.21893	46.54961	1022.96497	588.33423	97.06405	922.79871	99.37184	663.13977	1312.73132	35.23417	459.99594	1277.82092	-55.26456	295.25162	1294.52454	-123.76753	110.38677	1266.87	-173.33487	61.57978	1216.82849	19.08119	36.51893	1270.77917	135.14029	1783.98096	1097.60046	NaN	NaN	NaN	NaN	NaN	NaN
100	0.99	254.14807	1720.39026	1005.34668	260.19571	1710.17053	1148.59888	130.59319	1634.47058	1005.94495	124.17059	1621.896	1149.18701	87.43624	1498.10229	1086.87634	42.11296	1224.61902	1112.18372	229.02415	1432.40723	1068.56714	285.02838	1261.98022	1088.28284	39.8083	1329.78064	1167.36621	143.145	1462.19788	904.65466	81.01684	1271.82788	830.26086	41.37327	1141.3175	815.93262	2.16774	1019.25635	791.34387	12.60199	878.88599	798.58606	-33.74866	902.00543	777.34808	-40.99835	838.2688	762.67926	175.68199	1483.9115	1262.38416	195.74246	1315.47559	1379.6355	263.25137	1187.58936	1425.91077	367.39999	1121.79309	1432.70618	486.6033	1070.46313	1399.43091	462.34637	1033.18994	1434.526	533.03766	1023.74475	1432.53943	266.84406	954.60345	980.99487	261.81943	949.93054	1242.91162	56.05323	1006.70276	1063.16589	50.44057	1013.36157	1174.96484	263.4895	659.01801	912.31927	336.16171	475.61374	943.69324	360.92352	284.47653	943.14661	462.28177	82.60284	957.91309	450.8284	45.41682	1015.18726	612.05042	99.42902	920.89044	110.59651	662.55219	1311.88794	45.09923	460.05722	1277.5343	-49.25632	297.03647	1293.86584	-121.83776	113.6555	1267.01758	-172.15253	66.17994	1216.8501	19.51579	36.75384	1271.18774	149.47466	1781.61755	1095.08923	NaN	NaN	NaN	NaN	NaN	NaN
101	1	268.26721	1718.30005	1002.58398	274.40741	1707.89734	1145.88879	144.43143	1632.90723	1002.99951	138.39809	1619.71838	1146.16248	101.22936	1495.99341	1083.62622	56.5929	1222.19165	1108.6825	243.00761	1430.45471	1065.67114	299.50934	1260.32642	1085.62097	53.81566	1327.24146	1163.05261	157.51973	1460.08655	901.46191	94.48633	1269.62366	827.9881	53.85137	1139.95776	814.74756	11.15395	1019.90234	789.34796	16.76476	879.20062	794.7818	-28.91676	904.42712	774.44135	-39.42769	840.91498	759.15509	188.65408	1481.87744	1259.52185	208.25206	1313.44495	1377.1355	276.96695	1186.10352	1423.51709	383.02744	1123.67468	1430.13232	503.65897	1076.80286	1396.13281	480.77304	1038.33801	1430.8645	551.86139	1031.68518	1428.73853	283.20865	953.10272	979.00183	276.67953	948.45062	1241.0155	71.86956	1004.13147	1059.70374	65.34626	1011.24323	1171.57556	279.85638	657.92859	909.16992	353.10144	474.09662	940.46521	379.21436	283.34579	937.39832	481.91815	82.0361	951.91492	468.42868	43.28052	1008.46973	632.43707	100.25178	920.14832	122.21967	662.27234	1310.74207	55.58687	459.89288	1277.16675	-42.91838	299.25095	1292.87476	-119.54466	117.5731	1267.28113	-170.69025	71.36198	1216.87012	19.82996	36.89803	1271.54346	163.73244	1779.79651	1092.58142	NaN	NaN	NaN	NaN	NaN	NaN
102	1.01	282.46863	1716.43689	999.74518	288.53961	1705.68591	1143.06909	158.53629	1631.40063	1000.07526	152.24527	1617.86365	1143.26782	114.97074	1493.84033	1080.12268	71.30632	1219.81995	1105.06226	257.02878	1428.68896	1062.56677	314.04346	1258.87537	1082.8103	67.59562	1325.07019	1159.75684	171.96887	1458.2146	898.15643	108.49503	1267.79797	825.27148	66.83897	1138.74829	813.22101	20.5606	1020.92853	787.14691	21.99575	879.41455	791.19598	-23.38789	906.80951	771.50989	-36.34257	844.04675	755.81604	201.32719	1479.84094	1256.1593	220.5273	1311.17249	1373.68311	290.0448	1184.7561	1421.05566	397.78079	1125.28113	1427.24951	519.65222	1082.4071	1392.72522	498.01517	1042.83459	1426.99805	569.32892	1039.15625	1425.03125	300.03592	952.4931	977.12494	291.96875	947.23218	1238.98755	87.94484	1001.87537	1056.09009	80.78383	1009.10638	1167.9801	298.76892	657.61755	906.05237	369.70663	472.65161	937.2702	396.1366	282.16989	931.93353	498.0896	80.42289	946.48083	483.12479	40.50649	1002.45947	649.23212	98.91593	919.71033	134.416	662.16522	1309.1377	66.75043	460.08875	1276.61621	-35.77779	301.9259	1292.60205	-116.83469	122.04316	1267.6759	-168.57822	77.37431	1217.27368	20.1418	36.67603	1271.99084	178.08833	1777.73547	1089.77319	NaN	NaN	NaN	NaN	NaN	NaN
103	1.02	297.06604	1714.89075	997.10071	302.64279	1703.62866	1140.11206	172.41458	1629.98706	997.01605	166.13414	1615.95203	1139.95032	128.5956	1491.73413	1076.16174	86.14597	1217.54565	1101.36304	271.2395	1427.22925	1059.18237	328.65674	1257.63208	1079.86682	81.54924	1322.76257	1155.70068	186.52063	1456.50256	894.61737	122.82851	1265.703	822.24286	80.22397	1137.62329	811.77087	31.0659	1021.4505	784.87585	27.9581	880.17896	787.5163	-16.30325	909.12299	768.73499	-31.86824	847.03778	752.71545	213.96109	1478.19409	1253.04895	232.44044	1309.11218	1370.19873	302.49963	1183.70789	1418.83179	411.76007	1126.58093	1424.06494	534.48071	1087.67163	1389.37122	514.12061	1046.81213	1423.0199	585.49396	1045.95276	1421.3446	317.34921	952.46527	975.17877	307.76535	946.18976	1236.86353	104.45925	999.77545	1052.26685	96.77756	1006.94287	1164.13135	318.74075	657.45734	902.98224	386.43585	471.38223	934.04919	411.75406	280.76511	927.05505	510.79279	77.62737	942.17847	493.9953	37.2009	996.71582	662.43335	95.42863	919.00275	147.50018	662.16937	1307.67175	78.71941	460.5863	1276.30774	-28.26474	305.02393	1292.0498	-113.73009	127.08842	1268.15271	-165.78899	83.81725	1217.41382	20.53789	36.65635	1272.49695	192.40463	1776.23535	1087.21204	NaN	NaN	NaN	NaN	NaN	NaN
104	1.03	310.71552	1713.27966	993.67224	316.64264	1701.59863	1137.07813	186.67821	1628.39709	993.19495	179.97133	1614.55139	1136.67102	142.27652	1489.99927	1072.27087	101.22754	1215.20996	1097.49243	285.1189	1425.85889	1055.82141	343.37329	1256.63074	1076.73511	95.90895	1320.06409	1150.68262	201.21881	1454.92517	890.92078	137.1757	1264.11365	819.20001	93.90328	1136.57361	809.69666	41.81236	1022.49896	782.83276	36.01348	880.84436	784.53638	-8.24502	911.4021	765.92688	-26.41896	850.15918	749.63153	226.45428	1476.65112	1249.55884	244.06198	1307.10681	1366.4458	314.45743	1182.32092	1415.78625	424.89014	1127.49768	1420.68445	548.44568	1091.93372	1385.93091	529.16138	1050.15015	1418.98364	600.50446	1052.01343	1417.88782	335.02817	953.15295	973.14722	324.02594	945.34265	1234.57141	121.25387	997.91895	1048.41821	113.41225	1004.72522	1160.10168	339.75772	657.43658	900.20581	403.77682	470.19839	930.74115	426.46866	279.11688	922.36902	520.5788	73.90903	938.68591	502.16782	32.9011	993.08014	672.49225	90.12545	917.85754	161.3938	662.15625	1306.08728	91.41051	461.04156	1276.18042	-19.89853	308.46164	1291.8291	-110.00893	132.71951	1268.94067	-162.94106	91.1237	1217.79846	20.94869	36.45378	1273.19275	206.67024	1774.59082	1084.00525	NaN	NaN	NaN	NaN	NaN	NaN
